Patient4_TMGait_0pt5_01_left_35_EMG.mot
version=1
nRows=36
nColumns=33
inDegrees=no
endheader
time	1LAddLong	2LGlutMax	3LGlutMed	4LIliopsoas	5LSemiMemb	6LBicFemLong	7LRecFem	8LVastMed	9LVastLat	10LGasMed	11LTibAnt	12lTibPost	13LPeroneusLong	14LSol	15LExtDigLong	16LFlexDigLong	17RAddLong	18RGlutMax	19RGlutMed	20RIliopsoas	21RSemiMemb	22RBicFemLong	23RRecFem	24RVastMed	25RVastLat	26RGasMed	27RTibAnt	28RTibPost	29RPeroneusLong	30RSol	31RExtDigLong	32RFlexDigLong
48.02	-0.001221	0.2063	-0.074005	0.009613	0.012207	0.020905	0.089722	0.010071	0.1503	-0.13275	-0.007324	0.000305	0.079803	-0.044556	0.029602	-0.01709	0.00061	-0.09964	0.075226	-0.091248	0.079041	-0.11581	0.031128	-0.015564	-0.063782	0.000305	0.11139	0.02533	-0.22415	0.33829	-0.00473	-0.000916
48.021	0.005646	0.21271	-0.074463	0.013885	-0.012054	0.023956	0.11429	0.011749	0.14999	-0.03891	-0.006714	-0.011292	0.037079	-0.029144	0.048218	-0.023346	0.024872	-0.096436	0.044403	-0.08316	0.016479	-0.19806	0.008698	0.003052	-0.039215	-0.012665	0.04364	0.06424	-0.66727	1.7517	0.005493	0.008392
48.022	-0.002136	0.22659	-0.092316	0.016937	-0.02594	0.032806	0.096741	0.011139	0.1503	0.014801	-0.01358	-0.007935	0.017395	-0.016327	0.036316	-0.008087	0.029449	-0.095978	0.063782	-0.075531	0.11581	-0.19409	-0.002136	-0.037537	-0.053864	0.069122	0.036163	0.096588	-0.11139	1.3733	-0.004578	0.004272
48.023	0.002747	0.19562	-0.11322	0.01297	-0.042419	0.021667	0.065155	0.010376	0.16113	0.019226	-0.010834	-0.003357	0.085144	0.001526	0.008087	-0.004425	0.014191	-0.13947	0.08194	-0.013733	0.017548	-0.1033	0.037079	-0.003204	-0.026703	0.1796	0.15137	-0.021667	-0.09964	0.23621	-0.002899	-0.011902
48.024	0.00824	0.16312	-0.098267	0.002441	-0.0383	0.000305	0.067139	0.008392	0.16174	0.028076	-0.000763	-0.009613	0.095215	0.029602	-0.01297	-0.015564	-0.029907	-0.13153	0.10391	0.074615	-0.11765	0.11078	0.07843	-0.03891	-0.029602	0.12528	0.11261	-0.34347	-0.19089	-0.18463	-0.004578	-0.010834
48.025	0.006409	0.16159	-0.070648	0.015106	0.013428	-0.025635	0.067139	0.008545	0.17273	0.059967	0.00885	-0.007629	0.068054	0.022583	-0.01358	-0.023499	-0.022888	-0.10544	0.045929	0.17212	0.012817	0.14511	0.12924	-0.088806	-0.036163	0.066833	-0.010986	0.095215	0.41763	-0.65994	-0.003357	-0.002441
48.026	0.005798	0.19424	-0.033264	0.012054	0.061493	-0.040283	0.077972	0.007324	0.16037	0.066528	0.000916	-0.009308	0.092163	0.027466	-0.019989	-0.014496	0.002136	-0.14572	0.08316	0.15457	-0.012665	0.10407	0.14603	-0.10681	0.000916	0.064392	-0.030518	0.11459	0.29739	-0.31708	-0.00412	-0.00061
48.027	0.010529	0.16464	-0.066833	0.022278	0.006561	-0.029602	0.056305	0.002747	0.18036	0.055389	0.011902	-0.001831	0.083008	0.016632	-0.020599	0	0.014648	-0.12116	0.34927	0.070343	0.009155	0.0737	0.2153	-0.13046	-0.043945	0.032196	-0.032654	0.040588	-0.1001	0.54199	-0.005493	0.014801
48.028	0.01236	0.16098	-0.067139	0.006714	-0.043793	-0.031433	0.064545	-0.002136	0.15518	0.03891	0.040436	-0.00412	0.051117	-0.070648	-0.028839	-0.01358	0.011139	-0.091858	0.29724	0.042877	0.062408	0.029907	0.065002	-0.12711	-0.059357	0.001984	-0.018005	-0.18539	-0.1178	1.0066	-0.004272	-0.000153
48.029	0.016327	0.1265	-0.084686	-0.005188	0.011292	-0.056305	0.069427	0.010986	0.15289	0.016785	0.060577	-0.012665	0.032501	-0.072937	-0.016937	-0.013123	0.008698	-0.17883	0.29358	0.017395	0.062561	0.046234	-0.07843	0.005646	0.008087	-0.013428	0.045776	-0.00824	-0.016785	0.74097	-0.007172	-0.00885
48.03	0.005341	0.12711	-0.09491	0.01297	0.039673	-0.047302	0.060272	-0.002136	0.15579	-0.006561	0.031738	-0.007629	0.037994	-0.055847	-0.011444	-0.00946	0.007782	-0.12238	0.31158	0.003662	-0.011292	0.09613	-0.064392	0.048065	0.082855	-0.047607	0.082855	0.30151	0.11734	0.60379	-0.005341	-0.010376
48.031	0.003815	0.13382	-0.093536	0.007629	0.037689	-0.04303	0.057831	0.006714	0.15961	-0.018005	-0.035095	-0.005188	0.042114	-0.0354	-0.012207	-0.010834	0.022736	-0.11185	0.082092	-0.03006	-0.048523	0.10605	-0.089264	0.059509	0.027466	-0.042267	0.092163	-0.19302	0.18814	0.77499	-0.00412	0.006866
48.032	0.003967	0.12497	-0.091248	0.006714	0.007629	-0.024719	0.059357	-0.003052	0.1561	-0.050201	-0.008545	-0.001373	0.048218	-0.018616	-0.010223	-0.004272	0.011444	-0.1387	-0.005646	-0.045624	-0.099487	0.15671	-0.069885	0.068207	0.030518	-0.02182	0.066986	-0.12314	0.19562	0.45548	-0.003662	-0.004272
48.033	0.015869	0.090179	-0.08728	0.009613	0.008087	-0.016174	0.061951	-0.001221	0.1358	-0.096893	-0.016632	-0.002899	0.066071	0.011139	-0.003052	0.000458	-0.016632	-0.039825	-0.054932	-0.059662	0.007629	0.13611	-0.077362	0.036621	0.011444	-0.004425	-0.002899	-0.045624	0.1152	-0.44937	-0.00351	-0.009613
48.034	0.017853	0.1001	-0.095367	-0.000305	0.023499	-0.005035	0.070648	0.007019	0.1207	-0.10223	-0.014801	-0.006561	0.16083	0.014343	0.004425	0.000763	-0.004883	-0.03479	-0.066681	-0.058899	0.055084	0.02182	-0.037537	0.15381	-0.010834	-0.014954	-0.058594	0.13886	-0.008392	-0.83359	-0.00412	-0.00885
48.035	0.008392	0.089264	-0.087433	0.010529	0.023499	-0.013733	0.071869	-0.003662	0.11124	-0.07309	-0.009918	-0.001984	0.16983	0.016785	-0.001526	-0.022736	0.009918	0.029755	0.089111	-0.03418	0.076141	-0.042114	-0.063171	0.13687	-0.00946	-0.021667	-0.10788	0.033569	0.023499	-0.14328	-0.004578	-0.003052
48.036	-0.007629	0.054626	-0.16037	0.015259	0.002289	0.019836	0.05249	-0.002136	0.10925	-0.014038	-0.015411	-0.000458	0.15366	0.026093	-0.022125	-0.002136	0.015869	-0.06073	0.23758	-0.10025	-0.12299	0.069427	-0.061493	0.14893	0.016937	-0.014954	-0.037537	0.016785	0.068512	0.45883	-0.002289	-0.00061
48.037	0.006104	0.055084	-0.19348	0.010834	-0.02121	0.03418	0.049896	-0.005035	0.1033	0.009766	0.001984	-0.007477	0.16327	-0.028076	-0.018463	-0.016174	-0.000763	-0.004883	0.11765	-0.10452	-0.11353	0.085754	-0.041962	0.092468	0.015106	-0.002441	0.021515	0.07431	0.1799	0.29907	-0.003967	-0.000763
48.038	-0.002899	0.06958	-0.14206	0.001221	-0.028687	0.026245	0.045166	0.000153	0.095215	0.00412	0.001373	0.010529	0.16998	-0.076294	-0.016937	-0.00473	0.011902	0.008087	0.10986	0.010986	-0.10437	0.058289	0.079803	0.007019	0.02655	0.023193	-0.00061	0.014954	0.19379	0.075073	-0.00473	-0.001526
48.039	0.004883	0.074768	0.015869	0.009766	-0.021515	0.018616	0.048828	0.002289	0.097656	0.003662	0.005188	0.009155	0.15259	-0.1326	-0.016327	-0.013123	0.009155	0.054932	0.1329	0.091095	-0.013275	0.054779	0.042572	0.003204	0.063782	0.008087	-0.037384	-0.006561	0.15152	-0.046692	-0.006561	-0.013733
48.04	0.003662	0.031891	0.090942	0.014496	0.007629	0.010986	0.048218	0.007782	0.078278	-0.002747	0.018005	-0.002899	0.10025	-0.071106	-0.014648	-0.008087	-0.005951	0.062866	0.10635	0.17471	-0.14221	0.023041	0.042877	-0.022125	0.053711	0.018311	-0.091705	-0.032349	0.10925	-0.064087	-0.007172	-0.013428
48.041	0.001984	0.027771	0.096893	0.015259	0.033264	-0.009155	0.040283	-0.001678	0.096741	-0.025482	0.009613	-0.00351	0.077667	-0.015564	0.000458	-0.005341	0.009766	0.067596	0.060883	0.086975	0.11536	0.012207	0.074921	-0.01709	0.024414	0.027924	0.065002	-0.037842	0.083008	-0.001221	-0.003052	-0.001526
48.042	0.003357	0.002136	0.062714	0.02594	0.0383	-0.010834	0.036621	-0.003662	0.092926	-0.014648	0.007782	-0.005646	0.0737	-0.060425	-0.007019	-0.005035	0.028839	0.023499	-0.00351	0.014191	0.023499	-0.10284	0.007935	-0.02655	0.004578	0.029907	0.24262	-0.042725	-0.10666	-0.020447	-0.010376	-0.008087
48.043	0.002441	0.007324	0.028076	0.015106	0.014954	-0.031891	0.032501	-0.006256	0.088806	-0.055695	0.010681	-0.001068	0.09903	-0.25559	-0.00061	-0.013885	0.035706	-0.015106	-0.034027	0.049591	0.000458	-0.13977	-0.084534	-0.084076	-0.024261	0.010376	0.30945	-0.031891	-0.084076	-0.014496	0.00473	-0.007477
48.044	0.010071	0.033264	-0.020752	0.012512	0.019836	-0.033264	0.028229	-0.008545	0.089111	-0.068054	0.006866	0.002899	0.13641	-0.31372	0.016937	-0.019989	0.036163	-0.002747	-0.085297	0.049744	-0.048218	-0.053101	0.056763	-0.048981	-0.084991	-0.005188	0.40649	-0.035858	-0.18082	0.035706	-0.00351	-0.003357
48.045	0.007782	0.011749	-0.030823	0.013428	0.037994	-0.042725	0.032959	-0.00351	0.092163	-0.066223	0	0.005188	0.12924	-0.22201	0.016632	-0.018158	0.010223	0.040131	0.034637	0.003815	-0.095062	-0.019531	0.093079	0.072327	-0.11292	-0.006714	0.40527	-0.020447	-0.33203	0.071564	-0.003662	-0.005188
48.046	0.004425	0.066528	-0.019836	0.005188	0.017242	-0.037689	0.036926	0.000305	0.091858	-0.050964	0.004578	0.002136	0.09613	-0.14435	0.020599	-0.015106	-0.018921	0.050354	0.06485	-0.037842	-0.12741	-0.003815	0.12375	0.045166	-0.13962	-0.019379	0.24292	-0.023041	-0.10971	0.1149	-0.002441	-0.011292
48.047	0.00412	0.005951	-0.058594	0.00885	0.004272	-0.021057	0.044708	0.001526	0.086365	-0.037842	0.00885	0.004883	0.078735	-0.035095	-0.000916	-0.016022	-0.031586	0.036316	0.24033	0.008545	-0.10834	0.022125	0.04715	-0.036316	-0.11627	-0.033417	-0.033722	-0.024567	0.10849	-0.053558	-0.002136	-0.012512
48.048	-0.009918	-0.004578	-0.070038	0.00824	0.008392	-0.020905	0.029297	-0.005493	0.08255	-0.033875	0.011444	0.007324	0.076141	0.062408	-0.001984	-0.005035	-0.002136	0.020599	0.27252	0.017395	0.096893	-0.11581	0.041809	-0.078583	0.020142	-0.048065	-0.17273	-0.04364	0.22705	-0.31738	-0.005341	-0.007324
48.049	-0.011139	0.028687	-0.072327	0.005798	-0.019684	-0.011749	0.041504	0.001373	0.097809	-0.035553	0.007935	0.008698	0.082092	0.13748	-0.006714	-0.010986	0.001068	0.081024	0.075073	0.029602	0.14435	-0.1683	-0.031433	-0.044708	0.12344	-0.004578	-0.29159	-0.049133	0.32852	-0.3569	-0.000916	-0.007477
48.05	-0.009308	0.009918	-0.072479	0.008545	-0.008698	-0.028534	0.025787	0.002747	0.10117	-0.041656	0.00885	-0.000458	0.086365	0.1683	-0.000153	-0.0177	-0.005493	0.12787	-0.01297	0.004578	0.075989	-0.085754	-0.063171	-0.026703	0.19516	-0.019379	-0.25421	-0.015106	0.29892	-0.36789	-0.002747	0.001678
48.051	0.004272	-0.013885	-0.095825	0.004883	0.002136	-0.036011	0.017853	-0.003052	0.097198	-0.054016	0.01297	-0.007935	0.082245	0.093384	0.00061	-0.010376	-0.017242	0.029144	0.17777	-0.007782	0.066223	0.070801	-0.088043	-0.060425	0.15945	-0.000763	0.20737	0.020447	0.12528	-0.31967	-0.002289	-0.000763
48.052	0.01297	-0.010986	-0.10864	0.003967	0.025024	-0.052948	0.018005	-0.008545	0.10468	-0.042725	0.006409	0.000305	0.090332	0.081635	-0.000153	-0.00412	-0.005493	0.046539	0.1973	0.001221	-0.12451	0.091553	-0.028992	-0.083466	0.059204	-0.010071	0.60883	-0.00885	0.002136	-0.2214	-0.001831	-0.014496
48.053	0.00946	-0.018768	-0.14099	0.015106	0.037994	-0.045013	0.011292	-0.010986	0.096588	-0.039063	0.005188	0.012054	0.085907	0.082397	-0.005646	-0.006714	0.011597	0.012817	-0.073242	0.022736	-0.12894	0.067749	0.020294	-0.057526	-0.016327	-0.031433	0.2095	-0.005493	-0.03952	-0.27298	-0.001068	0.000305
48.054	0.00885	-0.006104	-0.2002	0.013275	-0.014038	-0.014801	0.011597	-0.005951	0.092468	-0.041504	0.017853	0.00885	0.075989	-0.000916	-0.011749	-0.002594	0.015717	-0.054321	-0.32638	0.023193	-0.15503	0.037537	0.075226	-0.019836	-0.016327	-0.024261	-0.10727	-0.011292	0.049133	-0.21545	-0.005188	0.001068
48.055	0.016479	-0.001678	-0.15305	0.013123	-0.065765	-0.032043	0.015259	-0.002747	0.10468	-0.036011	0.012665	0.013885	0.069275	-0.038452	-0.007782	-0.013275	0.011292	-0.003662	0.054321	-0.006714	-0.13504	0.030823	0.075073	0.037537	-0.019073	-0.011597	0.059357	-0.005951	0.17716	-0.11841	-0.00412	0.002441
